<svg width="33" height="33" viewBox="0 0 33 33" fill="none" xmlns="http://www.w3.org/2000/svg">
<g clip-path="url(#clip0_702_543)">
<path d="M19.5938 3.09375C19.5937 2.27324 19.2678 1.48633 18.6876 0.906138C18.1074 0.325948 17.3205 0 16.5 0C15.6795 0 14.8926 0.325948 14.3124 0.906138C13.7322 1.48633 13.4062 2.27324 13.4062 3.09375C13.4062 3.91426 13.7322 4.70117 14.3124 5.28136C14.8926 5.86155 15.6795 6.1875 16.5 6.1875C17.3205 6.1875 18.1074 5.86155 18.6876 5.28136C19.2678 4.70117 19.5937 3.91426 19.5938 3.09375ZM19.5938 29.9062C19.5937 29.0857 19.2678 28.2988 18.6876 27.7186C18.1074 27.1384 17.3205 26.8125 16.5 26.8125C15.6795 26.8125 14.8926 27.1384 14.3124 27.7186C13.7322 28.2988 13.4062 29.0857 13.4062 29.9062C13.4062 30.7268 13.7322 31.5137 14.3124 32.0939C14.8926 32.6741 15.6795 33 16.5 33C17.3205 33 18.1074 32.6741 18.6876 32.0939C19.2678 31.5137 19.5937 30.7268 19.5938 29.9062ZM3.09375 19.5938C3.91426 19.5937 4.70117 19.2678 5.28136 18.6876C5.86155 18.1074 6.1875 17.3205 6.1875 16.5C6.1875 15.6795 5.86155 14.8926 5.28136 14.3124C4.70117 13.7322 3.91426 13.4062 3.09375 13.4062C2.27324 13.4062 1.48633 13.7322 0.906138 14.3124C0.325948 14.8926 0 15.6795 0 16.5C0 17.3205 0.325948 18.1074 0.906138 18.6876C1.48633 19.2678 2.27324 19.5938 3.09375 19.5938ZM33 16.5C33 15.6795 32.6741 14.8926 32.0939 14.3124C31.5137 13.7322 30.7268 13.4062 29.9062 13.4062C29.0857 13.4062 28.2988 13.7322 27.7186 14.3124C27.1384 14.8926 26.8125 15.6795 26.8125 16.5C26.8125 17.3205 27.1384 18.1074 27.7186 18.6876C28.2988 19.2678 29.0857 19.5937 29.9062 19.5938C30.7268 19.5937 31.5137 19.2678 32.0939 18.6876C32.6741 18.1074 33 17.3205 33 16.5ZM9.21035 28.166C9.49771 27.8787 9.72565 27.5375 9.88117 27.1621C10.0367 26.7866 10.1167 26.3842 10.1167 25.9778C10.1167 25.5714 10.0367 25.169 9.88117 24.7936C9.72565 24.4181 9.49771 24.077 9.21035 23.7896C8.92299 23.5023 8.58185 23.2743 8.2064 23.1188C7.83096 22.9633 7.42855 22.8833 7.02217 22.8833C6.20144 22.8833 5.41433 23.2093 4.83398 23.7896C4.25364 24.37 3.92761 25.1571 3.92761 25.9778C3.92761 26.7986 4.25364 27.5857 4.83398 28.166C5.41433 28.7464 6.20144 29.0724 7.02217 29.0724C7.8429 29.0724 8.63001 28.7464 9.21035 28.166ZM9.21035 9.20391C9.51198 8.9199 9.7535 8.57819 9.92057 8.19907C10.0876 7.81995 10.1769 7.41113 10.1829 6.99688C10.189 6.58262 10.1118 6.17137 9.95596 5.78751C9.80008 5.40365 9.56869 5.055 9.27552 4.76227C8.98235 4.46953 8.63337 4.23865 8.24928 4.08334C7.86519 3.92804 7.45382 3.85145 7.03958 3.85814C6.62533 3.86483 6.21665 3.95465 5.83777 4.12228C5.4589 4.28991 5.11755 4.53193 4.83398 4.83398C4.25364 5.41433 3.92761 6.20144 3.92761 7.02217C3.92761 7.8429 4.25364 8.63001 4.83398 9.21035C5.41433 9.79069 6.20144 10.1167 7.02217 10.1167C7.8429 10.1167 8.63001 9.79069 9.21035 9.21035V9.20391ZM23.7896 28.166C24.077 28.4534 24.4181 28.6813 24.7936 28.8368C25.169 28.9923 25.5714 29.0724 25.9778 29.0724C26.3842 29.0724 26.7866 28.9923 27.1621 28.8368C27.5375 28.6813 27.8787 28.4534 28.166 28.166C28.4534 27.8787 28.6813 27.5375 28.8368 27.1621C28.9923 26.7866 29.0724 26.3842 29.0724 25.9778C29.0724 25.5714 28.9923 25.169 28.8368 24.7936C28.6813 24.4181 28.4534 24.077 28.166 23.7896C27.8787 23.5023 27.5375 23.2743 27.1621 23.1188C26.7866 22.9633 26.3842 22.8833 25.9778 22.8833C25.5714 22.8833 25.169 22.9633 24.7936 23.1188C24.4181 23.2743 24.077 23.5023 23.7896 23.7896C23.5023 24.077 23.2743 24.4181 23.1188 24.7936C22.9633 25.169 22.8833 25.5714 22.8833 25.9778C22.8833 26.3842 22.9633 26.7866 23.1188 27.1621C23.2743 27.5375 23.5023 27.8787 23.7896 28.166Z" fill="white"/>
</g>
<defs>
<clipPath id="clip0_702_543">
<rect width="33" height="33" fill="white"/>
</clipPath>
</defs>
</svg>
