<svg width="153" height="207" viewBox="0 0 153 207" fill="none" xmlns="http://www.w3.org/2000/svg">
<path d="M64.047 79.4893C64.2198 79.502 64.2744 79.6321 64.3231 79.7679C64.4176 79.9198 64.4028 80.0604 64.2791 80.1897C64.0384 80.1444 63.796 80.1022 63.6738 79.8476C63.7981 79.7279 63.9226 79.6086 64.047 79.4893Z" fill="#C5BBBB"/>
<path d="M24.4905 167.746C24.668 167.898 24.8044 168.097 24.5933 168.279C24.3794 168.464 24.2087 168.322 24.1187 168.085C24.3386 168.077 24.4072 167.904 24.4905 167.746Z" fill="#6F5B5B"/>
<path d="M152.892 106.467C152.87 103.527 152.894 100.585 152.8 97.6478C152.663 93.3776 151.024 89.7467 147.905 86.8102C146.798 85.7681 145.575 84.8719 144.286 84.0633C138.852 80.6553 132.946 78.414 126.714 77.0099C123.381 76.259 120 75.7848 116.577 75.7215C113.446 75.6635 110.358 75.1228 107.212 74.9808C107.163 74.7601 107.098 74.5807 107.088 74.3981C106.997 72.831 107.053 71.2668 107.304 69.7181C107.447 68.8313 107.648 67.9502 107.882 67.0824C108.101 66.2703 108.5 65.6762 109.482 65.5211C110.579 65.3476 111.469 64.6661 112.261 63.8904C113.429 62.7456 114.273 61.3808 114.94 59.9011C116.434 56.5847 116.965 53.1052 116.611 49.4958C116.476 48.1224 116.126 46.7909 115.472 45.5601C114.927 44.5348 114.205 43.6724 113.14 43.1486C112.934 43.0474 112.677 43.0098 112.697 42.6943C115.116 40.1332 118.675 35.7444 120.479 33.0938C121.334 31.8388 122.137 30.5546 122.704 29.1377C123.67 26.7235 124.146 24.2391 123.799 21.632C123.569 19.91 122.88 18.3559 122.048 16.8598C120.434 13.9578 118.608 11.1886 116.699 8.47485C115.657 6.99388 114.43 5.67714 112.997 4.56152C111.18 3.14577 109.118 2.44076 106.813 2.37619C105.112 2.32858 103.522 2.71259 102.007 3.44277C100.042 4.39012 98.1273 5.43309 96.4106 6.79184C95.5765 7.45198 94.6435 7.64502 93.6205 7.62911C92.6809 7.6145 91.8904 7.20467 91.1016 6.76132C90.5844 6.47071 90.2075 6.08162 90.0079 5.51266C89.883 5.1563 89.7362 4.80191 89.5523 4.47282C88.037 1.7625 85.8546 0.0703472 82.6325 0.0025206C81.6822 -0.0175665 80.7406 0.0828669 79.8106 0.28726C76.9967 0.905395 74.4452 2.11715 72.0635 3.71146C70.13 5.00565 68.3219 6.46249 66.5499 7.96642C61.1203 12.5747 56.0389 17.5485 51.1151 22.6869C48.6528 25.2563 46.3428 27.96 44.1185 30.7366C42.3983 32.884 40.7771 35.1029 39.3755 37.4748C38.5559 38.8616 37.7867 40.2743 37.1472 41.7569C36.4645 43.3396 36.045 44.9888 35.9335 46.7009C35.8169 48.4911 36.0945 50.2201 37.2467 51.6722C38.4616 53.2034 40.0064 53.9349 42.0009 53.43C42.7812 53.2318 43.5686 53.0625 44.3614 52.9223C46.3262 52.5765 48.0129 53.1296 49.4126 54.5528C50.2787 55.4333 50.7269 56.514 50.8746 57.7196C50.9501 58.336 51.0476 58.947 51.2915 59.5131C51.7705 60.6247 52.6503 61.4713 54.1781 61.3876C54.6478 61.3618 55.1206 61.2843 55.5787 61.1746C56.8745 60.8641 58.0837 60.3222 59.2832 59.7527C59.7469 59.5325 60.1716 59.2064 60.7063 59.1557C60.8723 59.3691 60.8035 59.6041 60.7874 59.8269C60.6105 62.2845 60.4675 64.7432 60.1212 67.1877C59.9148 68.6436 59.8902 70.1212 60.2931 71.5656C60.9077 73.7691 61.839 75.8351 63.0172 77.7924C63.3584 78.3594 63.7033 78.9242 64.0466 79.4899C64.0857 79.6163 64.0983 79.7522 64.1811 79.865C64.1838 79.8657 64.2076 79.9914 64.2076 79.9914C64.2076 79.9914 64.0901 79.9411 64.0933 79.9422C63.9534 79.9208 63.8053 79.9207 63.6734 79.848C61.978 79.1038 60.3671 78.2163 58.8913 77.0882C57.8071 76.2595 57.2214 75.183 57.1263 73.8228C57.0834 73.2087 56.9836 72.5987 56.9282 71.9851C56.803 70.5987 55.4875 69.591 53.9324 69.9538C52.827 70.2118 51.9088 70.7556 51.1798 71.6071C50.4549 72.4538 49.5858 73.0799 48.5596 73.5055C47.5676 73.9169 46.7997 74.6074 46.1872 75.4791C46.0238 75.7118 45.8657 75.9484 45.7067 76.1842C45.0837 77.1072 44.3165 77.8418 43.2517 78.2603C42.1716 78.6848 41.3093 79.428 40.5601 80.3051C40.3137 80.5935 40.0627 80.8781 39.8185 81.1685C39.0097 82.1302 38.0548 82.8798 36.8407 83.2716C36.5269 83.3728 36.2266 83.5199 35.9272 83.6613C34.5393 84.3168 33.8892 85.4447 33.8548 86.9505C33.8329 87.9062 33.9976 88.8421 34.2561 89.7561C34.6365 91.1006 35.4499 92.1098 36.7082 92.7399C37.046 92.9091 37.3978 93.0502 37.7387 93.2136C37.9954 93.3366 38.2451 93.4743 38.5661 93.6409C34.4476 95.0946 31.1841 97.5126 28.5608 100.83C26.6046 103.303 25.0377 105.99 23.9646 108.959C23.3358 110.698 22.828 112.474 22.4564 114.285C21.656 118.186 21.0091 122.111 20.6333 126.079C20.2746 129.869 20.3224 133.659 20.5785 137.446C20.7576 140.094 21.0336 142.735 21.2978 145.376C21.5149 147.545 21.7146 149.719 22.0338 151.874C22.8182 157.17 23.6672 162.457 24.4903 167.747C24.5633 168.076 24.442 168.192 24.1182 168.086C22.3257 166.511 20.3296 165.265 18.1585 164.269C16.8086 163.65 15.4217 163.194 13.9581 163.019C11.4263 162.717 9.01469 163.104 6.95315 164.699C3.83926 167.109 1.61363 170.19 0.356622 173.933C-0.229166 175.677 -0.114126 177.39 0.856838 179C1.23236 179.623 1.70741 180.152 2.37511 180.453C3.49725 180.96 4.63622 181.471 5.86427 181.617C6.9508 181.746 7.81312 182.179 8.64399 182.882C10.3311 184.307 12.1915 185.422 14.5076 185.45C15.1548 185.458 15.7017 185.721 16.1932 186.117C16.7097 186.534 17.199 186.988 17.738 187.372C19.1209 188.359 20.6408 188.962 22.3751 188.877C24.7181 188.763 26.649 187.767 28.2672 186.106C28.4489 185.92 28.5394 185.596 28.9328 185.663C29.1429 186.275 29.3536 186.903 29.5729 187.527C30.4836 190.119 31.3876 192.719 32.666 195.156C34.8165 199.254 37.9185 202.437 42.0503 204.57C44.1888 205.673 46.4941 206.302 48.8794 206.298C52.3348 206.292 55.6657 205.462 58.7151 203.843C63.0099 201.561 66.4033 198.337 68.3934 193.797C68.5264 193.494 68.6708 193.196 68.8116 192.896C68.991 192.513 69.0864 192.038 69.3745 191.773C69.7251 191.452 70.1624 191.894 70.5757 191.91C70.8121 191.92 71.0468 191.965 71.2831 191.982C73.7407 192.164 76.1959 192.407 78.6569 192.511C85.7162 192.809 92.7809 192.945 99.8456 193.002C103.115 193.028 106.388 193.061 109.657 192.834C112.92 192.606 116.187 192.422 119.453 192.254C122.684 192.087 125.86 191.571 128.987 190.773C131.856 190.042 134.547 188.904 136.917 187.085C137.674 186.503 138.37 185.862 138.944 185.101C139.86 183.886 140.606 182.561 141.303 181.218C141.977 179.917 142.501 178.54 143.149 177.225C145.189 173.081 146.53 168.695 147.698 164.248C147.926 163.38 148.095 162.492 148.233 161.604C148.606 159.217 148.961 156.827 149.297 154.435C149.619 152.135 149.9 149.83 150.215 147.53C150.742 143.68 151.255 139.829 151.824 135.986C152.206 133.406 152.604 130.828 152.749 128.225C152.886 125.764 152.976 123.297 152.981 120.832C152.992 116.043 152.929 111.255 152.892 106.467ZM85.3922 9.60678C85.4151 9.53334 85.508 9.46643 85.5851 9.42873C85.754 9.34617 85.8607 9.47608 85.8898 9.59921C86.0278 10.1851 86.1432 10.7763 86.2668 11.3656C86.7486 12.1444 87.3634 12.7842 88.1891 13.2033C89.8942 13.4979 91.5514 13.3281 93.1637 12.6992C93.291 12.6495 93.4392 12.6532 93.5777 12.6322C94.9129 11.9733 98.1418 10.3637 98.1418 10.3637C98.1676 10.3443 98.1945 10.3278 98.2221 10.3133L98.4184 10.1902C98.5045 10.1577 99.8574 9.53165 99.8574 9.53165C99.8574 9.53165 100.006 9.48521 100.001 9.48521C100.097 9.33025 103.002 8.54385 103.399 8.65472L103.4 8.6546H103.399C104.315 8.46429 105.033 8.55638 105.986 8.65499C106.328 8.53459 106.656 8.62315 106.985 8.71772C107.252 8.67794 107.497 8.71329 107.691 8.92316C108.825 9.00181 109.867 9.33547 110.783 10.0231V10.0234L110.783 10.0233C112.498 10.9027 113.876 12.1619 114.976 13.7355L114.977 13.7443C115 13.9031 115.127 13.9755 115.24 14.0599C116.661 15.7654 117.363 17.7512 117.53 19.9447L117.53 19.9451C117.807 20.624 117.819 21.3318 117.756 22.0476C117.67 22.1444 117.711 22.2615 117.759 22.3342C117.872 23.565 117.904 24.7956 117.749 26.0258C117.744 26.2159 117.739 26.406 117.734 26.596C117.79 26.9442 117.752 27.2748 117.553 27.5756L117.461 28.3089C117.523 28.6487 117.452 28.9589 117.253 29.2405C116.806 32.0459 115.949 34.678 114.027 36.8585C113.968 36.9487 113.897 37.0303 113.815 37.1011L113.782 37.1398C113.137 38.138 112.211 38.7412 111.08 39.042C110.355 39.2348 109.668 39.1225 109.07 38.6614C108.803 38.455 108.619 38.1657 108.746 37.7958C108.772 37.7195 108.863 37.6591 108.934 37.6057C109.03 37.5343 109.137 37.5476 109.171 37.6491C109.32 38.0931 109.638 38.34 110.075 38.4518C110.56 38.5759 111.008 38.4131 111.454 38.2573C111.907 38.0992 112.287 37.821 112.643 37.5079C112.924 37.2605 113.196 37.0035 113.472 36.7507C113.519 36.5293 113.672 36.3906 113.848 36.2703C113.915 36.1733 113.989 36.0806 114.068 35.993L114.08 35.9759C114.203 35.8878 114.298 35.779 114.331 35.6256C115.755 33.2804 116.428 30.6752 116.96 28.0213C116.905 27.6239 116.972 27.2487 117.14 26.8915C117.151 26.8644 117.163 26.8375 117.178 26.8111L117.247 26.033V22.0454C117.154 21.6281 116.584 18.1283 116.384 17.4507C116.02 16.2148 115.313 15.1553 114.633 14.0824C114.143 13.5742 113.658 13.0606 113.161 12.5594C112.292 11.6842 111.272 10.9994 110.273 10.2875L107.639 9.46825C107.55 9.46441 107.464 9.44074 107.386 9.39899L106.359 9.17503L103.017 9.18325C102.673 9.21625 101.723 9.3686 101.604 9.4406C101.719 9.39286 99.7414 10.2597 98.9304 10.5694C98.778 10.6276 98.6315 10.6985 98.4913 10.7819C97.1022 11.607 95.7155 12.4371 94.1616 12.9339C92.2795 13.835 90.3276 14.2799 88.2456 13.8075C88.0233 13.757 87.8228 13.611 87.6123 13.5094C86.9318 13.2879 86.4477 12.8489 86.1557 12.1964V12.1963C85.598 11.5777 85.465 10.8 85.3515 10.0183C85.3314 9.8846 85.3516 9.73617 85.3922 9.60678ZM92.4572 38.13C92.3859 37.3893 91.9965 37.0224 91.2619 37.0052C90.649 36.991 90.0459 37.1004 89.4759 37.3536C88.9622 37.5817 88.4429 37.7971 87.926 38.0181C87.5905 38.2725 87.2608 38.5347 86.917 38.7767C86.8057 38.8549 86.6484 38.8858 86.5395 38.754C86.4389 38.6323 86.4564 38.4823 86.5524 38.3724C86.8353 38.0491 87.1765 37.8051 87.5937 37.6793C88.5074 36.9583 89.5669 36.5857 90.7009 36.4172C91.021 36.3696 91.3612 36.3902 91.6836 36.4377C92.4228 36.5466 92.8758 37.0147 93.022 37.7229C93.1165 38.1801 93.1035 38.6618 93.1155 39.1329C93.1264 39.558 93.0691 39.9871 93.1068 40.4087C93.1664 41.0756 93.3991 41.5989 94.2916 41.4046C94.429 41.3747 94.5736 41.3773 94.7148 41.3649L96.429 40.5619L101.441 37.6605C101.615 37.6475 101.732 37.5457 101.828 37.4105L101.851 37.3976C102.573 36.775 103.414 36.3464 104.254 35.9169C104.421 35.8317 104.62 35.765 104.725 35.9953C104.825 36.215 104.652 36.3532 104.496 36.4453C103.806 36.8538 103.107 37.2469 102.411 37.6455C100.822 38.7395 99.2021 39.7801 97.4399 40.5797C97.2545 40.5816 97.1323 40.6881 97.0298 40.8271L96.9898 40.8437C96.4938 41.2432 95.9152 41.5275 95.2959 41.6759C94.9427 41.9448 94.5259 42.0198 94.1006 42.0536C93.2409 42.1221 92.7656 41.7987 92.572 40.942C92.4801 40.5353 92.4926 40.1028 92.4794 39.6812C92.463 39.1644 92.5067 38.6431 92.4572 38.13ZM58.5337 52.373C57.975 52.4817 57.0172 52.4034 56.1563 52.2888C55.6138 52.2166 55.1033 51.9905 54.6853 51.6372C54.2673 51.2839 53.9592 50.8183 53.7975 50.2955C53.6338 49.766 53.4841 49.2636 53.4366 49.049C53.2986 48.4263 53.1587 47.8035 52.9922 47.1877C52.9395 46.9927 52.8317 46.6982 52.6673 46.4048C52.3533 45.845 51.7845 45.4783 51.1483 45.393C50.2567 45.2734 49.3898 45.3907 48.4647 45.6042C48.1079 45.6866 46.1542 45.9628 45.9134 45.99C45.5139 46.1717 43.8943 46.0602 43.6698 46.0024C43.0424 45.8691 42.7496 45.4219 42.5966 44.8492C42.4733 44.388 42.4844 43.9217 42.5585 43.4534C42.6982 42.5697 43.7187 40.273 43.9 39.9486C45.4947 37.0953 53.0364 27.6917 54.0044 26.8377C54.3379 26.4438 54.6576 26.0374 55.0072 25.6582C57.8913 22.5284 60.9533 19.5756 64.0363 16.645C64.956 15.7707 72.0542 8.96725 72.4745 8.85964C72.5475 8.84098 72.6618 8.90333 72.7082 8.96451C72.7506 9.02033 72.8036 9.13434 72.7649 9.1689C72.5276 9.38073 72.233 9.60625 71.9834 9.80413C70.5712 11.1537 66.5173 15.0812 66.1852 15.4078C63.2215 18.3221 60.2454 21.2242 57.2887 24.1457C56.2836 25.1389 55.3232 26.1772 54.3423 27.195C53.3563 28.3304 50.7131 31.35 50.6439 31.4587L50.6426 31.4622C50.5624 31.5227 49.2761 33.0587 49.235 33.2005C48.9372 33.6192 48.6547 34.0499 48.339 34.4547C46.6313 36.6435 45.1097 38.9534 43.7908 41.3966C43.6311 41.8758 43.4374 42.3468 43.3188 42.8361C43.1106 43.6947 42.9433 44.5652 43.5414 45.3594C43.6677 45.5823 43.9155 45.5938 44.11 45.6312L45.3926 45.6174C45.5096 45.5929 45.6779 45.6156 45.7937 45.5859C46.034 45.5772 49.8913 44.7459 50.8148 44.8395C51.7319 44.9325 52.3246 45.359 53.0901 46.035C53.2043 46.1359 53.2884 46.2726 53.3445 46.4142C53.5037 46.8136 53.6509 47.2178 53.7857 47.6261C54.0375 48.3947 54.3438 50.4538 54.5161 50.4841C55.3375 51.7763 56.5793 52.0326 57.9714 51.8422C59.0942 51.6885 60.1838 51.376 61.2069 50.8854C62.4335 50.2973 63.6389 49.6648 64.8534 49.0515C64.9354 48.9871 66.5381 47.94 66.5381 47.94V47.9398C66.5379 47.9399 66.731 47.7885 66.8189 47.7315C66.9812 47.5671 76.4822 39.6411 76.4822 39.6411C76.4821 39.6409 76.8884 39.1528 77.0631 39.3267C77.2153 39.4782 77.1686 39.6571 77.0466 39.8092C76.9935 39.8755 72.2047 44.2691 72.2047 44.2691C72.1103 44.325 72.0423 44.3943 71.9796 44.4611C71.8471 44.6443 70.2465 45.969 69.7033 46.268C69.602 46.3325 69.5082 46.4082 69.4238 46.4936L69.3653 46.5328C69.243 46.694 68.2079 47.517 67.7776 47.7017C67.678 47.7486 67.4087 47.9648 67.4087 47.9648C67.3207 48.0417 65.5194 49.2477 65.4202 49.3081C65.3755 49.3921 60.829 51.9264 58.5337 52.373ZM62.1126 72.4903C61.5364 70.8973 61.3252 69.2753 61.5557 67.5996C61.8724 65.2975 62.1047 62.9905 62.094 60.6625C62.0911 60.048 62.2131 59.4305 62.1826 58.8192C62.1588 58.3428 62.3989 58.1391 62.7477 57.9489C63.9108 57.3151 65.0928 56.712 66.2257 56.0276C67.2779 55.3918 68.3129 54.7146 69.2884 53.968C70.3053 53.1897 71.4215 52.9729 72.6345 53.1446C74.1995 53.366 75.6763 53.8461 76.9562 54.8185C77.0683 54.9035 77.1721 55.0048 77.2952 55.0687C77.5677 55.2101 77.8443 55.21 78.0867 55.0008C78.3365 54.7853 78.3237 54.4963 78.2487 54.2157C78.1433 53.8213 77.8247 53.5897 77.5086 53.3869C76.4662 52.7179 75.3523 52.204 74.1369 51.932C73.6294 51.8186 73.12 51.7136 72.377 51.5546C73.2627 50.8829 73.9288 50.3607 74.6127 49.8624C77.6764 47.63 80.8509 45.56 84.0137 43.4733C84.4476 43.1871 84.9029 42.9287 85.3675 42.6959C85.7035 42.5275 86.0612 42.3592 86.4268 42.301C87.6848 42.1007 87.8467 42.2928 87.5268 43.4216C87.4236 43.7857 87.269 44.1361 87.1807 44.5032C87.1152 44.7751 87.077 45.0671 87.0996 45.3442C87.1699 46.2089 87.7588 46.7462 88.6199 46.6774C89.1333 46.6365 89.6475 46.5022 90.1421 46.3485C91.1353 46.0399 92.1304 45.7271 93.0977 45.3475C95.1233 44.5526 97.1309 43.7118 99.1473 42.893C100.466 42.3573 101.702 41.6599 102.943 40.9696C103.314 40.7633 103.692 40.5506 104.093 40.4241C104.736 40.2212 105.191 40.5224 105.364 41.1767C105.538 41.836 105.452 42.4927 105.376 43.153C105.267 44.1 105.249 45.0408 105.533 45.9707C105.692 46.4892 105.944 46.9246 106.403 47.225C106.8 47.4855 107.219 47.4452 107.547 47.0826C107.832 46.767 108.078 46.4156 108.356 46.0931C108.918 45.4422 109.547 44.8726 110.348 44.5233C111.48 44.0294 112.464 44.2088 113.339 45.0793C113.815 45.5541 114.145 46.1257 114.41 46.7407C114.845 47.7516 115.095 48.8129 115.187 49.9004C115.472 53.2749 114.906 56.5098 113.476 59.5824C112.913 60.7912 112.21 61.9176 111.237 62.8456C110.394 63.6486 109.462 64.2771 108.215 64.1713C107.708 64.1283 107.451 64.4174 107.247 64.8387C106.69 65.9908 106.197 67.1641 105.828 68.3937C103.798 75.1571 100.061 80.8127 94.6774 85.3646C92.0081 87.6214 89.0056 89.3032 85.5953 90.1863C82.2997 91.0396 79.0427 90.9961 75.8167 89.8083C75.3159 89.6238 75.0331 89.3585 74.8359 88.8973C74.6316 88.4196 74.3941 87.9531 74.1356 87.502C73.1529 85.7867 71.8437 84.374 70.1725 83.3073C69.8134 83.0782 69.4392 82.8723 69.0822 82.64C68.1656 82.0433 67.3078 81.373 66.6408 80.4959C64.7683 78.0337 63.1713 75.4171 62.1126 72.4903ZM103.077 92.8362C102.2 94.3013 101.195 95.6767 100.093 96.9831C98.4407 98.9409 96.7153 100.826 94.7993 102.532C94.0532 103.196 93.2654 103.803 92.3518 104.218C90.2594 105.167 88.2464 105.105 86.284 103.805C84.5655 102.666 83.0964 101.28 81.8253 99.6688C81.532 99.2969 81.2349 98.9279 80.934 98.5621C79.8059 97.1911 78.5185 96.0247 76.8225 95.3895C76.3852 95.2257 76.1693 94.949 76.1222 94.45C76.038 93.5562 75.8568 92.672 75.727 91.7821C75.6914 91.5376 75.8584 91.4344 76.0674 91.4787C76.9453 91.6646 77.812 91.9124 78.6957 92.0596C81.8108 92.5783 84.827 92.1028 87.7711 91.0577C90.6576 90.0331 93.2384 88.4692 95.5957 86.5286C99.4183 83.3817 102.364 79.531 104.675 75.1739C104.875 74.7977 105.073 74.421 105.277 74.0469C105.293 74.0168 105.346 74.0062 105.598 73.8681C105.746 77.1052 105.916 80.2242 106.024 83.3453C106.145 86.8419 104.826 89.9131 103.077 92.8362ZM37.6086 91.5526C36.4348 90.9971 35.7724 90.0939 35.5481 88.8471C35.4475 88.2882 35.3603 87.7217 35.3351 87.1556C35.2884 86.1074 35.6863 85.2709 36.733 84.931C38.8481 84.2441 40.4403 82.8939 41.7743 81.166C42.3322 80.4434 43.0646 79.8997 43.918 79.5671C45.211 79.0632 46.1823 78.1804 46.8964 77.0301C47.6238 75.8583 48.5738 75.003 49.8634 74.4989C50.8138 74.1274 51.5216 73.4173 52.1927 72.6729C52.7425 72.063 53.3689 71.5821 54.2055 71.4208C54.9705 71.2735 55.3685 71.5283 55.4814 72.3233C55.5748 72.9802 55.63 73.6424 55.7038 74.3021C55.8697 75.7832 56.5197 77.004 57.6564 77.9717C58.4901 78.6814 59.3828 79.3067 60.3522 79.81C62.3686 80.8568 64.3861 81.9025 66.4271 82.9001C67.4086 83.3799 68.3584 83.9064 69.2777 84.4899C71.9455 86.1828 73.5202 88.6536 74.1944 91.6872C74.7837 94.3392 74.866 97.0334 74.6852 99.7501C74.5213 102.214 74.1139 104.645 73.8793 107.098C73.8049 107.875 73.7826 107.871 72.9491 108.102C71.1033 108.615 69.2014 108.626 67.3692 108.747C65.3668 108.669 63.4324 108.538 61.5503 107.981C61.1021 107.848 60.8371 107.634 60.6807 107.166C60.1864 105.684 59.6319 104.223 59.1049 102.753C58.2203 100.284 56.6985 98.2418 54.7874 96.4944C52.8116 94.688 50.4089 93.717 47.8122 93.1932C45.4842 92.7236 43.1122 92.6088 40.7591 92.3415C39.6735 92.2183 38.6151 92.0289 37.6086 91.5526ZM27.9675 183.974C26.527 186.323 24.4171 187.443 21.6843 187.398C20.9655 187.386 20.2978 187.131 19.6239 186.696C20.3839 184.835 21.4176 183.262 23.3559 182.463C23.5289 182.392 23.7005 182.299 23.8469 182.184C24.0449 182.028 24.1391 181.798 24.0732 181.553C24.0099 181.317 23.8375 181.15 23.5938 181.075C23.1518 180.939 22.7478 181.079 22.3626 181.269C21.5003 181.696 20.774 182.299 20.1621 183.038C19.6176 183.697 19.1563 184.419 18.7888 185.19C18.6668 185.446 18.5943 185.728 18.3191 185.913C17.1142 185.039 16.0701 183.819 14.3952 183.993C14.2282 183.549 14.4546 183.269 14.586 182.996C15.3711 181.367 16.2364 179.795 17.7993 178.746C18.1376 178.519 18.1916 178.152 18.0088 177.88C17.7681 177.521 17.3859 177.372 17.0278 177.51C16.6199 177.668 16.3087 177.962 16.0066 178.266C14.8523 179.426 14.0392 180.809 13.3856 182.294C13.1978 182.721 13.0317 183.157 12.8212 183.674C11.5239 183.226 10.5665 182.532 9.62709 181.811C9.40222 181.638 9.21073 181.422 8.99134 181.242C8.10333 180.512 8.11011 180.517 8.49959 179.522C9.01443 178.206 9.88456 177.159 10.933 176.243C11.1827 176.025 11.4594 175.835 11.6915 175.601C11.8633 175.427 11.9224 175.184 11.8102 174.945C11.7051 174.722 11.5291 174.573 11.2747 174.525C10.8605 174.448 10.5392 174.627 10.2422 174.883C9.11708 175.85 8.13699 176.933 7.52655 178.309C7.41137 178.569 7.2919 178.827 7.19159 179.093C6.71433 180.356 6.71328 180.368 5.39222 180.007C4.89174 179.87 4.40678 179.674 3.9196 179.492C2.1835 178.844 1.32406 177.475 1.52376 175.634C1.58481 175.071 1.70116 174.518 1.89903 173.975C3.0316 170.868 4.92891 168.306 7.43093 166.179C9.11291 164.75 11.1112 164.267 13.2691 164.432C14.6936 164.542 16.0533 164.934 17.3688 165.518C19.9961 166.682 22.2863 168.35 24.5075 170.138C24.91 170.462 25.1158 170.836 25.232 171.31C26.0102 174.484 26.7924 177.657 27.5786 180.828C27.7493 181.518 27.9361 182.203 28.1204 182.889C28.2241 183.275 28.1846 183.62 27.9675 183.974ZM151.539 118.513C151.478 121.595 151.447 124.679 151.301 127.757C151.178 130.361 150.789 132.942 150.403 135.522C149.829 139.365 149.316 143.217 148.788 147.067C148.479 149.321 148.205 151.58 147.89 153.833C147.55 156.273 147.19 158.71 146.813 161.145C146.66 162.127 146.491 163.113 146.231 164.07C145.067 168.37 143.783 172.628 141.796 176.641C140.956 178.338 140.193 180.073 139.358 181.773C138.51 183.5 137.342 184.962 135.767 186.107C133.545 187.721 131.06 188.721 128.424 189.392C125.708 190.083 122.951 190.547 120.157 190.736C116.42 190.987 112.68 191.234 108.938 191.38C104.009 191.573 99.0759 191.56 94.144 191.443C89.9717 191.344 85.7995 191.24 81.6269 191.15C78.3065 191.078 74.9988 190.807 71.6899 190.55C71.1243 190.506 70.5575 190.463 70.033 190.194C69.8504 189.966 69.9983 189.743 70.0656 189.537C71.2189 186.013 71.9137 182.384 72.4912 178.733C72.8686 176.347 73.1929 173.95 73.4556 171.548C73.7546 168.815 74.026 166.077 74.1885 163.333C74.4747 158.505 74.664 153.671 74.9036 148.84C75.0987 144.909 75.3068 140.979 75.5121 137.048C75.5814 135.72 75.5843 134.395 75.4093 133.072C75.294 132.201 74.951 131.434 74.4172 130.749C74.2248 130.502 73.8857 130.446 73.6567 130.591C73.3822 130.764 73.3069 131.027 73.3515 131.326C73.3719 131.463 73.4167 131.608 73.4908 131.724C74.1155 132.698 74.1447 133.794 74.0953 134.885C73.9046 139.101 73.6803 143.315 73.4783 147.53C73.3716 149.756 73.3274 151.984 73.1771 154.209C72.9088 158.183 72.7931 162.167 72.4936 166.138C72.005 172.618 71.1632 179.056 69.6877 185.393C68.9013 188.771 67.8017 192.039 66.0595 195.069C65.1266 196.692 63.959 198.089 62.5823 199.353C59.3698 202.303 55.5722 203.979 51.3082 204.658C48.3112 205.136 45.4341 204.631 42.7481 203.267C38.7739 201.249 35.792 198.181 33.8396 194.191C31.8783 190.182 30.4579 185.957 29.3136 181.648C28.4141 178.262 27.5869 174.855 26.7592 171.45C26.1319 168.87 25.7314 166.245 25.3269 163.623C24.6983 159.549 24.0496 155.478 23.4687 151.397C23.1548 149.192 22.9416 146.973 22.7226 144.756C22.4615 142.114 22.1946 139.471 22.0175 136.823C21.7798 133.272 21.7546 129.72 22.1075 126.167C22.5342 121.869 23.2077 117.613 24.1736 113.407C25.2408 108.759 27.2359 104.564 30.3816 100.938C32.3077 98.7177 34.575 96.9582 37.2494 95.7546C39.3868 94.7926 41.6715 94.188 43.9948 94.2217C46.9501 94.2645 49.8428 94.8787 52.3889 96.5257C54.5937 97.9519 56.2146 99.921 57.3022 102.294C58.0312 103.885 58.6329 105.535 59.2688 107.168C59.4387 107.604 59.5068 108.079 59.6569 108.525C59.7284 108.736 59.6529 108.883 59.5695 109.052C58.5036 111.208 58.1637 113.562 57.7334 115.888C57.4404 117.472 57.189 119.064 56.903 120.649C56.8192 121.114 56.7083 121.578 56.5619 122.026C56.0481 123.603 55.0274 124.724 53.4894 125.363C52.9215 125.599 52.3387 125.805 51.7876 126.075C50.2928 126.807 49.5185 128.014 49.4385 129.687C49.3945 130.604 49.493 131.483 49.8604 132.327C49.9739 132.588 50.0555 132.867 50.1979 133.11C50.9156 134.337 50.6578 135.457 49.9007 136.566C49.1508 137.665 48.3571 138.727 47.4853 139.729C44.4604 143.207 41.7255 146.898 39.3545 150.852C37.0838 154.638 35.1125 158.568 33.6847 162.759C32.8697 165.152 32.3885 167.607 32.1406 170.113C32.0147 171.386 31.9021 172.661 31.8161 173.938C31.7812 174.454 31.7888 174.982 31.9646 175.486C32.1445 176.001 32.5336 176.286 32.8852 176.158C33.2972 176.008 33.5591 175.59 33.3783 175.132C33.1565 174.57 33.1633 174.016 33.2308 173.454C33.4679 171.478 33.674 169.496 33.9907 167.533C34.5229 164.232 35.7316 161.143 37.1406 158.133C39.8269 152.393 43.2288 147.108 47.2975 142.248C48.3625 140.976 49.4072 139.686 50.4221 138.374C50.8837 137.777 51.3021 137.133 51.6474 136.463C52.2176 135.356 52.2727 134.197 51.77 133.033C51.5635 132.555 51.3753 132.069 51.1683 131.591C50.9368 131.057 50.8798 130.501 50.8925 129.924C50.9192 128.716 51.4284 127.833 52.5536 127.342C52.9877 127.154 53.4249 126.974 53.8651 126.801C56.042 125.94 57.4334 124.382 58.0676 122.127C58.4407 120.8 58.6553 119.443 58.87 118.087C59.1887 116.074 59.5193 114.065 60.0289 112.089C60.1236 111.723 60.2084 111.35 60.3451 110.998C60.5495 110.473 60.6712 109.821 61.0562 109.483C61.515 109.08 62.1193 109.591 62.6541 109.708C64.8971 110.201 67.1556 110.314 69.4405 110.127C70.8097 110.015 72.1601 109.78 73.5594 109.543C73.824 110.236 73.8258 110.801 73.7505 111.369C73.5049 113.224 73.5352 115.051 74.1502 116.85C74.3847 117.536 74.2591 118.249 74.078 118.953C73.8534 119.824 73.667 120.704 73.5194 121.592C73.4193 122.197 73.4036 122.82 73.5349 123.43C73.6119 123.787 73.9125 123.994 74.2634 123.966C74.582 123.94 74.8043 123.771 74.8723 123.465C74.9333 123.19 74.9578 122.902 74.9631 122.62C74.982 121.619 75.1057 120.636 75.4077 119.678C75.8031 118.424 75.8542 117.176 75.4249 115.908C75.0391 114.768 75.002 113.583 75.0939 112.39C75.1703 111.398 75.2633 110.403 75.0006 109.42C74.9653 109.287 74.913 109.123 74.9597 109.011C75.5388 107.62 75.4042 106.118 75.6416 104.675C76.0421 102.24 76.2339 99.7814 76.243 97.3105C76.2443 96.9427 76.4563 96.8238 76.7942 96.9811C77.4442 97.2838 78.0201 97.6952 78.5498 98.1769C79.3256 98.8824 79.9761 99.6973 80.6181 100.52C81.9998 102.291 83.6061 103.815 85.4903 105.052C87.8809 106.622 90.36 106.707 92.9258 105.574C93.8864 105.149 94.7439 104.552 95.5237 103.852C98.6038 101.084 101.38 98.0466 103.704 94.6074C104.798 92.9893 105.645 91.2483 106.395 89.4517C107.174 87.5845 107.516 85.6307 107.496 83.6242C107.477 81.7762 107.346 79.9294 107.282 78.0816C107.213 76.131 106.954 76.3261 108.987 76.4765C110.402 76.5813 111.804 76.8585 113.219 76.9933C114.492 77.1148 115.773 77.1532 117.051 77.2175C122.237 77.4788 127.295 78.3784 132.216 80.0776C136.214 81.4583 140.076 83.1046 143.644 85.4008C144.723 86.0955 145.751 86.8538 146.705 87.7114C149.686 90.3911 151.211 93.7721 151.335 97.7429C151.442 101.202 151.455 104.667 151.402 108.128C151.349 111.593 151.608 115.05 151.539 118.513Z" fill="black"/>
<path d="M64.2788 80.1894L64.3229 79.7676C64.4051 79.8685 64.5065 79.9605 64.5609 80.0748C64.5852 80.1258 64.5358 80.2486 64.482 80.2909C64.4015 80.3543 64.3179 80.3003 64.2788 80.1894Z" fill="#7F8383"/>
<path d="M109.844 159.217C110.697 159.227 111.549 159.29 112.394 159.406C114.282 159.664 115.742 160.641 117.005 161.989C117.301 162.304 117.545 162.65 117.597 163.096C117.627 163.348 117.561 163.581 117.36 163.73C117.109 163.917 116.808 163.906 116.563 163.732C116.378 163.599 116.245 163.391 116.095 163.211C114.958 161.843 113.564 160.984 111.746 160.808C110.606 160.697 109.478 160.702 108.342 160.785C105.072 161.022 101.859 161.617 98.6751 162.358C93.283 163.612 87.9101 164.949 82.6269 166.615C80.9588 167.141 79.3205 167.761 77.6665 168.332C76.9516 168.58 76.233 168.817 75.511 169.044C75.2889 169.113 75.0495 169.15 74.8167 169.157C74.4863 169.167 74.1542 168.874 74.1212 168.561C74.0874 168.242 74.2698 168.026 74.5282 167.88C74.6474 167.813 74.7966 167.801 74.9306 167.758C75.5152 167.572 76.1167 167.426 76.6806 167.19C81.0601 165.358 85.6241 164.113 90.2075 162.934C93.049 162.204 95.8981 161.503 98.7543 160.833C101.753 160.128 104.787 159.61 107.857 159.325C108.517 159.264 109.182 159.252 109.844 159.217Z" fill="#020101"/>
<path d="M114.402 135.903C114.397 130.116 114.697 125.438 115.498 120.801C115.635 120.008 115.806 119.221 115.987 118.437C116.038 118.216 116.146 117.984 116.295 117.816C116.496 117.588 116.79 117.552 117.077 117.674C117.379 117.803 117.511 118.062 117.441 118.364C116.237 123.614 115.93 128.957 115.906 134.314C115.891 137.677 115.966 141.047 116.382 144.394C116.499 145.333 116.669 146.266 116.804 147.204C116.864 147.625 116.92 148.049 116.934 148.472C116.944 148.826 116.666 149.129 116.359 149.177C116.067 149.222 115.698 148.995 115.585 148.674C115.523 148.497 115.503 148.306 115.466 148.121C115.102 146.307 114.837 144.474 114.713 142.632C114.537 140.031 114.469 137.423 114.402 135.903Z" fill="#020202"/>
<path d="M85.3904 82.0837C84.2577 82.1173 83.0557 81.8736 81.8678 81.5467C80.9454 81.2929 80.1185 80.8419 79.3654 80.2587C78.9501 79.9372 78.6208 79.5457 78.4134 79.0474C78.2428 78.6375 78.1976 78.2248 78.273 77.7993C78.3544 77.3393 78.8 76.9723 79.1562 77.0429C79.5566 77.1221 80.025 77.5794 79.8792 77.9502C79.5573 78.7686 80.0558 79.0854 80.5939 79.3872C81.0846 79.6626 81.5986 79.9269 82.135 80.0853C85.4969 81.0787 88.6729 80.6783 91.6235 78.7364C91.8995 78.5547 92.1622 78.3473 92.4544 78.1974C92.7223 78.0601 93.0064 78.0924 93.2336 78.3214C93.4604 78.5501 93.5073 78.9805 93.282 79.2261C93.0296 79.5012 92.7494 79.7662 92.438 79.969C90.3314 81.341 88.0395 82.124 85.3904 82.0837Z" fill="#040303"/>
<path d="M79.3574 68.2189C79.3127 67.6761 79.5017 67.0851 79.7199 66.5144C80.2078 65.2382 80.8049 64.0031 81.1247 62.665C81.1562 62.5332 81.2377 62.4023 81.3273 62.2979C81.519 62.0744 81.7602 61.9092 82.0658 62.0365C82.3465 62.1536 82.5452 62.3836 82.4776 62.7016C82.3603 63.2538 82.222 63.8042 82.0466 64.3406C81.7978 65.1019 81.4924 65.8448 81.2404 66.6052C81.0779 67.0955 80.9004 67.5961 80.8478 68.1042C80.7335 69.2105 81.3699 69.8075 82.4562 69.6678C83.5416 69.5283 84.5625 69.1689 85.5554 68.7182C85.8524 68.5834 86.1594 68.4574 86.4748 68.3799C86.714 68.3212 86.9384 68.4248 87.0729 68.6543C87.2043 68.8789 87.1961 69.1213 87.0577 69.3232C86.9281 69.5122 86.7665 69.7072 86.5725 69.8195C85.2053 70.611 83.7178 71.088 82.1537 71.204C80.5638 71.3219 79.3724 70.021 79.3574 68.2189Z" fill="#040404"/>
<path d="M89.9009 47.2812C91.1057 47.2875 92.2281 47.5895 93.2711 48.1981C94.3461 48.8253 95.2166 49.6887 96.0355 50.6038C96.4779 51.0982 96.4774 51.5889 96.1178 51.8555C95.8016 52.0899 95.4058 52.0137 94.9847 51.6202C94.3992 51.0729 93.8615 50.4656 93.2319 49.9757C91.384 48.5379 89.3676 48.3892 87.2398 49.3081C86.7052 49.539 86.2967 49.9226 85.8827 50.3098C85.7002 50.4806 85.4736 50.5364 85.23 50.4447C84.9284 50.3312 84.7391 49.909 84.8624 49.6277C85.0587 49.1792 85.4049 48.856 85.7897 48.5792C87.016 47.6972 88.3952 47.285 89.9009 47.2812Z" fill="#050404"/>
<path d="M73.6491 56.0875C72.9409 55.6903 72.1583 55.7738 71.551 56.3173C71.2288 56.6057 70.9802 56.9532 70.831 57.3571C70.5026 58.2468 70.2399 59.1532 70.2485 60.1974C70.2087 60.7898 70.3466 61.4373 70.597 62.0552C71.0771 63.2398 72.0748 63.9098 73.2221 63.8511C74.5406 63.7836 75.5772 62.9762 75.942 61.7326C76.5356 59.7092 75.4821 57.1156 73.6491 56.0875ZM73.3232 60.5736C73.2648 60.8725 73.1102 61.0937 72.8157 61.1962C72.5328 61.2947 72.1599 61.1318 71.9732 60.8372C71.71 60.4219 71.6452 59.9602 71.6547 59.6197C71.6638 58.7764 71.8789 58.3847 72.2739 58.3557C72.6154 58.3307 72.9041 58.6016 73.0951 59.1939C73.2386 59.6388 73.4187 60.0853 73.3232 60.5736ZM74.6332 61.3223C74.3875 61.2343 74.2392 60.9394 74.295 60.6479C74.3355 60.4358 74.5115 60.3669 74.6759 60.2883C74.8754 60.3159 75.1071 60.6755 75.1002 60.9437C75.0943 61.1745 74.8266 61.3914 74.6332 61.3223Z" fill="#020202"/>
<path d="M93.7048 56.4241C93.4526 55.5355 93.0237 54.7592 92.4504 54.0588C91.9121 53.4012 91.1939 53.2515 90.3955 53.4803C89.7666 53.6604 89.3346 54.0859 89.0385 54.656C88.6599 55.3848 88.4768 56.161 88.4872 56.9843C88.5128 58.0063 88.7685 58.9556 89.45 59.7421C90.4182 60.8594 91.9575 60.8576 92.914 59.7262C93.7238 58.7683 94.0652 57.6933 93.7048 56.4241ZM90.9437 57.5422C90.8762 57.6914 90.7333 57.8465 90.5124 57.848C90.3025 57.8495 90.1386 57.7419 90.047 57.588C89.7025 57.0079 89.5329 56.3933 89.7763 55.7214C89.8829 55.4273 90.0856 55.255 90.395 55.2522C90.6547 55.2499 90.847 55.4266 90.9225 55.6455C91.0426 55.9932 91.0986 56.3629 91.1723 56.6821C91.0902 57.01 91.0562 57.2938 90.9437 57.5422ZM92.2538 58.4974C91.9891 58.4839 91.8795 58.2868 91.907 58.0196C91.9281 57.8148 92.0326 57.6527 92.2358 57.6717C92.4974 57.6962 92.5853 57.915 92.6086 58.1306C92.5881 58.3733 92.4335 58.5065 92.2538 58.4974Z" fill="#030303"/>
</svg>
