<svg width="142" height="208" viewBox="0 0 142 208" fill="none" xmlns="http://www.w3.org/2000/svg">
<path fill-rule="evenodd" clip-rule="evenodd" d="M136.58 179.833C135.854 175.75 135.189 171.655 134.585 167.552C134.295 165.604 134.022 163.653 133.767 161.7C133.591 160.332 133.322 158.768 134.256 157.754C135.57 156.328 136.765 155.106 136.926 153.063C137.076 151.141 136.425 149.045 136.017 147.179C135.161 143.265 134.097 139.401 132.92 135.572C131.725 131.682 130.415 127.83 129.085 123.984C127.842 120.388 126.647 116.76 125.029 113.31C121.956 106.763 116.759 101.915 110.335 98.6779C108.738 97.8724 105.48 94.9985 103.811 94.3551C102.276 93.7635 102.282 95.4908 100.771 94.8406C99.5643 94.3203 98.4398 93.626 97.7643 92.4649C97.03 91.2028 95.19 89.4382 94.9098 87.9699C94.316 84.8574 94.9592 82.2084 92.7299 79.8658C90.7519 77.7855 88.0924 76.3596 85.3409 75.5948C79.2868 73.9117 71.2138 75.0881 67.5619 80.6951C65.8173 83.3729 65.2074 86.6093 62.8537 88.7949C60.7982 90.7029 61.2582 92.0066 58.5962 92.9903C58.4454 93.0463 54.3591 92.1721 54.2083 92.2281C51.2958 91.6068 48.5128 93.3459 45.8405 94.3551C41.8573 95.8591 38.0648 97.8172 34.5024 100.144C27.3179 104.836 21.1649 110.928 16.0922 117.823C10.9776 124.774 7.00887 132.565 4.18327 140.708C3.49668 142.686 2.87994 144.688 2.33731 146.71C2.03235 147.841 1.70694 149.014 2.07835 150.172C2.38076 151.12 3.05542 151.826 3.84679 152.395C4.92013 153.165 7.07275 153.666 7.03101 155.216C6.99864 156.395 6.59742 157.635 6.4015 158.8C6.16894 160.187 5.97727 161.582 5.78561 162.975C4.91502 169.316 4.23694 175.694 3.93709 182.089C3.6415 188.386 3.39701 194.812 3.83487 201.106C3.86383 201.521 3.9882 201.902 4.18839 202.225C4.00098 202.296 3.98735 202.643 4.2199 202.692L4.70887 202.796C5.04705 203.051 5.46957 203.208 5.95598 203.223C6.28565 203.233 6.61446 203.248 6.94413 203.265C10.4171 203.988 13.8901 204.673 17.4091 205.19C21.686 205.816 25.9778 206.336 30.2806 206.749C39.1228 207.606 47.8969 207.322 56.7511 206.861C65.5851 206.402 74.4339 206.288 83.2769 206.52C92.1344 206.75 100.989 207.135 109.849 207.292C119.747 207.467 129.63 207.198 139.499 206.413C140.853 206.306 141.69 205.233 141.423 203.893C139.824 195.867 138.012 187.894 136.58 179.833Z" fill="white"/>
<path fill-rule="evenodd" clip-rule="evenodd" d="M51.4465 92.0309C52.3614 91.991 53.295 92.1387 54.2082 92.2286C54.2875 92.2363 54.3181 92.3585 54.2278 92.3772C52.594 92.7175 50.9772 93.1826 49.3723 93.6554L48.6848 93.8583C46.8755 94.3921 45.1181 94.943 43.3659 95.6542C39.8741 97.0734 36.557 98.9882 33.5048 101.187C21.751 109.659 13.2435 122.484 7.87515 135.762C6.06126 140.247 4.59602 144.865 3.49237 149.575C3.42848 149.845 3.15078 150.536 3.30326 150.812C3.43785 151.057 3.96089 151.208 4.20367 151.334L5.02485 151.758C6.62633 152.581 9.29263 153.933 9.56096 154.065L9.97837 154.27C16.8009 157.604 24.0902 160.431 31.7687 160.626L31.8284 159.973C32.1708 156.36 32.6206 152.728 33.6002 149.226C33.653 149.037 33.8933 149.101 33.9154 149.268C34.4614 153.414 34.2868 157.592 34.096 161.757C33.7587 169.134 33.3106 176.507 32.9119 183.88C32.7134 187.569 32.4553 191.255 32.2219 194.942C31.9894 198.636 31.9144 202.419 31.382 206.083C31.2627 206.899 30.3036 207.343 29.5769 207.258C28.7728 207.162 28.1543 206.456 28.1509 205.647C28.1407 203.513 28.4099 201.353 28.5598 199.224C28.7012 197.201 28.8537 195.18 29.0104 193.158C29.5812 185.78 30.2371 178.41 30.8453 171.035C31.0609 168.419 31.2934 165.806 31.5319 163.192C23.3993 162.931 15.8008 159.928 8.55152 156.419C8.44674 158.794 8.19374 161.165 7.94841 163.529C7.26352 170.127 6.65956 176.724 6.20807 183.344C5.9866 186.687 5.80685 190.034 5.66885 193.382C5.57388 195.576 5.50261 197.77 5.45504 199.966L5.42948 201.223C5.40989 202.019 5.32896 202.757 4.656 203.337C3.97367 203.926 3.05111 203.958 2.37474 203.337C1.47007 202.506 1.63022 201.375 1.65663 200.26C1.72317 197.437 1.82967 194.615 1.97608 191.796C2.31596 185.224 2.99404 178.678 3.87996 172.159L4.22667 169.642C4.87237 164.964 5.58111 160.178 7.02585 155.672C6.46444 155.393 5.90392 155.113 5.3443 154.83C4.35359 154.33 3.32882 153.861 2.36537 153.309C1.60126 152.871 0.942778 152.27 0.729815 151.384C0.492148 150.396 0.855037 149.317 1.09611 148.353L1.11741 148.268C1.35337 147.298 1.60807 146.332 1.87641 145.371C2.96885 141.472 4.30867 137.647 5.88778 133.917C9.04219 126.449 13.114 119.354 18.0889 112.939C22.5662 107.164 27.8553 101.927 34.0543 98.0002C37.0852 96.0803 40.3154 94.5033 43.7304 93.3889C45.3268 92.8678 47.0637 92.4145 48.7359 92.2286C49.6366 92.1318 50.5413 92.0658 51.4465 92.0309ZM67.6641 80.1965C68.7519 79.0329 70.913 80.2373 70.39 81.7786C69.1616 85.4063 67.2058 88.7147 64.1527 91.0981C61.2829 93.338 57.861 94.7936 54.175 94.483C54.1493 94.4805 54.1242 94.4736 54.1009 94.4626L54.4178 94.8921C56.9111 98.254 59.5417 101.569 62.7123 104.318C69.1719 109.916 77.9672 112.936 86.4602 110.788C93.1413 109.098 99.0284 103.831 100.759 97.1192C100.487 97.2385 100.183 97.2662 99.893 97.1982C98.5079 96.8985 97.1365 95.4463 96.2429 94.4049C95.2838 93.2993 94.5153 92.0431 93.9684 90.6873C92.9556 88.1715 92.631 84.9318 94.0136 82.495C94.1848 82.1945 94.5775 82.3626 94.6116 82.6563L94.6635 83.1137C94.9302 85.3978 95.2624 87.6071 96.3434 89.69C96.8715 90.7085 97.5053 91.7033 98.2771 92.5563C98.6902 93.0129 99.1375 93.4492 99.6204 93.8319C100.092 94.2054 100.661 94.4745 101.084 94.9031L101.161 94.9846L101.163 94.9701C101.27 94.0662 101.906 93.6673 102.529 93.6928C103.131 93.7165 103.839 93.9813 104.112 94.1078L104.139 94.1197C108.341 96.1304 112.212 98.7514 115.854 101.659C123.387 107.674 129.031 115.535 131.766 124.792C133.108 129.337 133.878 134.018 134.691 138.678L135.191 141.533C135.95 145.836 136.798 150.222 138.511 154.224C138.954 155.259 138.612 156.23 137.526 156.637C136.17 157.144 134.809 157.639 133.444 158.123C134.114 160.987 134.522 163.95 135.023 166.827C136.09 172.945 137.397 179.023 138.518 185.131C139.09 188.255 139.607 191.389 140.18 194.513C140.455 196.017 140.743 197.519 141.022 199.023C141.173 199.833 141.309 200.647 141.453 201.459L141.478 201.594C141.561 202.022 141.664 202.465 141.546 202.893C141.411 203.382 141.028 203.728 140.687 204.078C140.405 204.367 139.999 204.368 139.654 204.211L139.541 204.159C138.925 203.872 138.443 203.586 138.225 202.893C138.087 202.455 138.036 201.961 137.946 201.51C137.773 200.645 137.609 199.778 137.454 198.909C137.143 197.17 136.84 195.43 136.544 193.688L136.268 192.058C135.319 186.437 134.419 180.784 133.963 175.104C133.761 172.585 133.547 170.067 133.331 167.549L133.169 165.66C132.964 163.27 132.713 160.82 132.677 158.397L131.862 158.685L127.883 160.087C126.896 160.435 125.64 161.148 124.578 161.018C124.058 160.954 123.662 160.791 123.356 160.495C123.716 165.648 124.224 170.789 124.88 175.914C125.481 180.572 126.148 185.224 126.935 189.854C127.325 192.147 127.726 194.438 128.162 196.722C128.379 197.865 128.604 199.006 128.836 200.146C128.951 200.714 129.088 201.283 129.178 201.857C129.281 202.513 129.1 202.917 128.732 203.458C128.429 203.901 127.824 204.129 127.335 203.823C126.685 203.417 126.347 203.065 126.156 202.325C125.983 201.654 125.877 200.953 125.743 200.273C125.495 199.018 125.256 197.761 125.024 196.503C124.539 193.871 124.097 191.232 123.697 188.586C122.294 179.264 121.404 169.863 120.954 160.446C120.74 155.801 120.656 151.151 120.703 146.501C120.723 144.117 120.802 141.727 120.97 139.35C121.142 136.942 121.499 134.584 121.816 132.2C121.827 132.116 121.947 132.111 121.952 132.2C122.103 134.872 122.338 137.542 122.454 140.221C122.564 142.778 122.613 145.338 122.701 147.897C122.816 151.259 122.977 154.623 123.188 157.984C123.571 157.567 124.15 157.325 124.728 157.419C125.566 157.244 126.468 156.806 127.266 156.54L130.279 155.537C131.86 155.008 133.445 154.489 135.034 153.979C133.613 149.216 132.64 144.381 131.809 139.477L131.439 137.271C130.705 132.929 129.914 128.585 128.586 124.38C127.202 119.976 125.086 115.834 122.326 112.128C119.593 108.46 116.267 105.231 112.844 102.21C109.913 99.6239 106.777 97.289 103.788 94.7741C103.818 94.9404 103.825 95.1238 103.798 95.3258C103.162 99.9626 100.736 104.281 97.3528 107.493C90.5584 113.946 80.5006 115.285 71.8041 112.259C63.392 109.332 55.9545 102.4 53.3266 93.8218C53.2814 93.6758 53.479 93.6172 53.5583 93.725C53.7031 93.9245 53.8504 94.1231 53.997 94.3225C53.992 94.2791 54.0021 94.2352 54.0257 94.1983C54.0492 94.1613 54.0848 94.1336 54.1264 94.1197C57.1923 92.939 60.2027 91.2661 62.501 88.8989C63.6272 87.7422 64.5922 86.4399 65.37 85.0269C65.7397 84.3521 66.072 83.6527 66.3369 82.9296L66.4042 82.7428C66.7253 81.8372 66.9937 80.9137 67.6641 80.1965Z" fill="black"/>
<path fill-rule="evenodd" clip-rule="evenodd" d="M83.902 5.28105C94.1208 5.28105 106.919 16.9006 110.665 21.8447C113.814 26.002 113.368 47.4172 113.368 60.1206C113.368 62.7773 112.164 67.8062 111.726 70.3474C110.124 79.6601 103.14 87.4704 89.3189 87.4704C78.0651 87.4704 69.4043 83.9175 61.0298 74.8297C59.1191 72.7571 49.7879 80.1787 47.8797 77.5059C42.8947 77.5059 38.7274 31.0844 48.5135 17.1612C58.3004 3.23722 73.6832 5.28105 83.902 5.28105Z" fill="white"/>
<path fill-rule="evenodd" clip-rule="evenodd" d="M53.1885 8.55132C59.0936 3.19646 66.9596 0.620458 74.8963 0.810582C79.0073 0.909887 83.103 1.6899 86.9849 3.02586C88.9271 3.69723 90.8072 4.57316 92.6054 5.56367C93.2528 5.9193 93.8508 6.33604 94.4258 6.7791L94.5689 6.89029H94.5706C96.1133 7.44283 97.4899 8.43504 98.7387 9.5953C101.242 9.39669 103.766 9.62077 106.186 10.3906C109.555 11.4634 112.673 13.4275 114.863 16.2165C117.415 19.4639 118.263 23.403 117.961 27.4695L117.905 28.1604C117.606 31.7532 117.07 36.373 114.111 38.7334C113.894 38.9093 113.647 39.0445 113.381 39.1323C115.287 42.3857 116.851 45.9989 117.786 49.6477C121.359 63.5836 118.612 78.1178 114.317 91.5504C113.964 92.6572 112.285 93.3922 111.43 92.3109C109.904 90.3774 107.687 88.9023 105.192 88.6264C103.654 88.4558 102.122 88.7648 100.668 88.0688C100.067 87.7743 99.5463 87.3389 99.151 86.7999C96.6885 87.7325 94.0623 88.1603 91.4298 88.0577C87.1271 87.882 82.5271 86.3967 79.567 83.1391C79.0916 82.6163 78.9707 82.0289 79.0806 81.4993C79.4523 81.367 79.8356 81.2693 80.2254 81.2073C83.9796 83.4133 88.1179 84.8867 92.5654 84.9793C95.1354 85.0327 97.6416 84.6746 99.7252 83.0755C100.177 82.7292 100.591 82.3455 100.974 81.9339C105.33 79.1406 108.402 74.396 109.862 69.3136C111.223 64.5741 111.056 59.6394 110.588 54.7776L110.341 52.2127C109.981 48.4475 109.648 44.6705 109.554 40.8901L109.582 40.8884C110.502 40.829 110.509 39.3938 109.582 39.4532C107.185 39.6077 104.806 39.2155 102.416 39.387C102.397 38.2607 102.315 37.1394 101.983 36.0539C101.793 35.4334 100.71 35.3104 100.595 36.0539C100.442 37.0469 100.385 38.0357 100.368 39.0339C96.7923 38.9864 93.2196 38.6859 89.6427 38.8098C88.9833 38.1087 88.7729 36.8644 88.4646 35.9996C88.4194 35.8722 88.3743 35.7466 88.3274 35.6193C88.0552 36.8626 87.6665 38.0777 87.1663 39.2486L86.2889 39.2512C81.3116 39.2749 76.2337 39.4235 71.3739 40.453C71.0357 40.195 70.8346 39.7443 70.7801 39.3344C70.4283 36.6692 69.9249 34.0754 69.033 31.5359L68.906 31.1777C68.8944 31.1462 68.8834 31.1145 68.8728 31.0827C68.216 32.1402 67.4315 33.1256 66.5762 34.0431C66.071 34.5824 65.5459 35.1027 65.002 35.6032C64.4756 36.1863 63.9312 36.7609 63.4031 37.3457C63.4244 37.4518 63.4423 37.5596 63.4567 37.6699C63.6177 38.8837 63.6348 40.1144 63.5164 41.3323C63.3041 43.5245 62.6802 45.6574 61.6772 47.62L61.6449 47.8169C61.4932 48.737 61.2769 49.6876 60.7709 50.3802C61.4137 51.0955 61.8912 51.9427 62.1696 52.862C62.4209 53.6946 61.2649 54.4161 60.6661 53.7345C60.208 53.2092 59.6733 52.7554 59.0799 52.3884C59.0433 52.4376 58.9769 52.4622 58.9027 52.4206C57.2851 51.5252 54.537 51.7959 52.9202 52.6396C50.9098 53.687 50.1261 55.8377 50.3484 58.0174C50.5631 60.1002 51.4772 62.5345 53.2499 63.6014C54.0634 64.0911 54.6963 64.1327 55.5609 63.8976C55.8369 63.8229 56.1794 63.5938 56.3259 63.48L56.4707 63.3637C57.0372 62.9181 57.5645 62.6126 58.2332 62.6007C58.9172 62.3885 59.6038 62.683 59.8653 63.3977L59.8815 63.4435C60.0042 63.8077 60.2274 64.2651 60.1788 64.8219C60.1286 65.4169 59.8543 65.9593 59.4462 66.3947C59.375 66.4714 59.3006 66.545 59.223 66.6154C66.2593 74.2093 67.1632 86.0411 63.5547 95.5269C63.398 95.9436 63.231 96.3544 63.0564 96.7618C62.4533 98.1572 60.132 97.7243 59.8364 96.3417C59.584 95.1646 59.2629 94.0032 58.8746 92.8634L58.7784 92.5867C58.5646 91.9773 58.3644 91.362 58.1489 90.7517L58.1267 90.6821L58.1003 90.5871L57.7349 91.3815L56.624 93.7801C56.1044 94.8996 54.4535 94.2911 54.3922 93.2123L54.3905 93.1758C54.349 91.5245 54.0931 89.8854 53.6289 88.2996L53.4841 88.4796C51.3187 91.1489 48.7768 93.6503 45.2893 94.2665C44.4153 94.4201 43.4254 93.5094 44.026 92.6283C44.2747 92.2642 44.5141 91.8908 44.7416 91.5122C44.553 91.4256 44.3683 91.331 44.1879 91.2287C42.8658 90.4886 41.7643 89.4336 40.8537 88.2368C38.9226 85.7007 38.2317 82.5077 38.0622 79.3825C37.8824 76.08 38.1738 72.5983 39.0793 69.4121C39.4712 68.0345 40.0019 66.7121 40.616 65.4296C40.5734 65.3151 40.5309 65.2005 40.49 65.085C39.8323 63.2422 39.2788 61.364 38.8323 59.4594C37.9216 55.6049 37.4323 51.6635 37.373 47.704C37.2649 40.6313 38.489 33.4448 41.0675 26.849C43.7313 20.047 47.7375 13.4937 53.1894 8.55132H53.1885ZM49.8723 70.3932C49.3833 69.6259 48.1592 70.3177 48.6132 71.0901L48.6303 71.1181C49.4054 72.3361 49.7692 73.7212 50.2156 75.0793C50.5018 75.9526 51.8937 75.5792 51.6041 74.6965L51.507 74.4019C51.064 73.0253 50.6594 71.6256 49.8723 70.3932ZM54.1315 55.741L54.4561 55.584C55.4817 55.0968 56.3796 54.7649 57.59 55.1901C59.212 55.7588 60.9489 57.5692 59.8526 59.3253C59.4496 59.9729 58.7332 60.231 57.9955 60.0782C56.7518 59.8219 56.4307 58.7049 55.7994 57.7882L55.6904 57.6329C55.3054 57.0786 54.819 56.3122 54.1784 56.0941C54.0327 56.044 53.9714 55.8182 54.1315 55.741ZM55.0456 18.4547L55.1503 18.3605C55.8471 17.7468 54.8249 16.7351 54.1315 17.3454C50.9609 20.1378 49.8595 24.5098 48.2146 28.235C47.8457 29.0736 49.086 29.8053 49.4583 28.9607C51.0274 25.4044 52.0683 21.1521 55.0464 18.4539L55.0456 18.4547ZM93.1523 17.2325C92.3243 16.8599 91.5994 18.0617 92.3959 18.4573L92.4257 18.4717C95.2257 19.733 96.4174 22.5882 97.5581 25.2398C97.9218 26.0868 99.1621 25.3569 98.8018 24.5166L98.5956 24.0413C97.4056 21.3083 96.0171 18.5243 93.1523 17.2325ZM97.5419 15.5061C96.6636 15.2031 96.2871 16.5883 97.1586 16.8913C99.5318 17.7146 101.161 19.4902 102.534 21.5213C103.048 22.2818 104.295 21.5637 103.776 20.7965C102.181 18.4394 100.288 16.461 97.5419 15.5061Z" fill="black"/>
<path fill-rule="evenodd" clip-rule="evenodd" d="M92.7221 74.8743C91.5014 74.3778 90.4379 73.5623 89.6435 72.5139C89.5219 72.3601 89.4335 72.1829 89.3839 71.9935C89.3344 71.804 89.3247 71.6064 89.3556 71.413C89.4203 71.0166 89.6554 70.6585 89.9757 70.4174C90.2969 70.1764 90.699 70.0575 91.0874 70.1178C91.4256 70.1704 91.7612 70.3546 92.0279 70.7374L92.0832 70.8138C92.5462 71.4451 93.1559 71.9551 93.8602 72.3C94.5418 72.6337 95.3047 72.7673 96.0597 72.6853C97.5402 72.519 98.5598 71.7211 99.6443 70.6372C99.7788 70.5006 99.9134 70.3597 100.048 70.2163C100.127 70.0948 100.246 70.0041 100.384 69.9591C100.534 69.912 100.695 69.914 100.843 69.9647C100.992 70.0154 101.12 70.1122 101.21 70.2409C101.293 70.3623 101.34 70.5125 101.325 70.6856C101.225 71.8085 100.637 72.8101 99.8001 73.5969C98.8708 74.4711 97.639 75.0754 96.4796 75.2876C95.2027 75.521 93.9011 75.3538 92.7221 74.8743ZM97.0827 57.5527C98.4414 58.3768 100.512 60.2967 99.0505 62.338C97.3289 64.1374 94.8517 62.0741 93.631 61.1404C92.4989 60.4173 91.2263 62.2778 92.2766 63.1223C101.1 69.6332 104.68 57.7683 97.7702 56.5851C97.0086 56.4544 96.7267 57.298 97.0827 57.5527ZM81.2724 49.9791C81.4223 48.1212 84.2607 47.6994 84.5435 49.5378C84.7956 51.1844 84.4983 52.6977 83.7538 54.1805C83.0434 55.5963 81.2562 54.9359 81.1207 53.6458C80.9393 51.9169 81.1787 51.1352 81.2724 49.9791ZM102.88 49.1567C103.276 48.6398 103.847 48.2876 104.531 48.4862C106.67 49.11 106.04 52.1367 105.289 53.6102C104.881 54.4097 103.561 54.6126 102.965 53.9081C101.994 52.7597 101.528 50.4655 102.764 49.3332C102.797 49.2755 102.834 49.2161 102.88 49.1567ZM83.724 41.8505L84.0622 41.7911C85.1074 41.6112 86.4065 41.438 87.1459 42.2749C87.5386 42.7197 87.6732 43.5455 87.1459 43.9707C86.2191 44.7177 85.1934 44.4291 84.0826 44.4919C83.1759 44.5436 82.2779 44.6962 81.4053 44.9468C79.4699 45.4985 77.8931 46.5043 76.2405 47.6094C76.0241 47.7537 75.8026 47.4778 75.9057 47.2758C76.8598 45.4128 78.7083 43.8833 80.5602 42.9505C81.5492 42.4523 82.6302 42.0398 83.724 41.8505ZM100.93 41.0162L101.189 41.0688C104.003 41.6545 107.659 42.8258 108.992 45.5817C109.043 45.9713 108.989 46.0545 108.946 46.1088L108.931 46.1274C108.895 46.1741 108.866 46.2378 108.697 46.2913C108.649 46.2799 108.601 46.268 108.554 46.2556C107.943 46.096 107.46 45.8762 106.992 45.6479L106.485 45.3992C105.896 45.1106 105.302 44.8339 104.673 44.6294C103.331 44.1913 101.949 43.8871 100.546 43.7212C100.247 43.6916 99.9615 43.5832 99.7184 43.4072C99.4868 43.2339 99.3229 42.9857 99.255 42.7052C99.1561 42.3089 99.1851 42.0092 99.3981 41.6511C99.5582 41.3828 99.7882 41.197 100.051 41.09C100.331 40.9802 100.636 40.9545 100.93 41.0162Z" fill="black"/>
</svg>
