<svg width="20" height="20" viewBox="0 0 20 20" fill="none" xmlns="http://www.w3.org/2000/svg">
<path d="M5.59058 9.30115C5.312 8.72834 5.16722 8.09971 5.16718 7.46275C5.16718 7.11415 5.21758 6.75595 5.32078 6.36915C5.36698 6.19515 5.42498 6.02875 5.49018 5.86735C5.23998 5.73075 4.96498 5.64675 4.66998 5.64675C3.57598 5.64675 2.69038 6.67735 2.69038 7.95015C2.69038 8.84055 3.12558 9.61115 3.76118 9.99455L1.07818 11.2434C0.910981 11.3219 0.800781 11.5107 0.800781 11.7217V13.8393C0.800781 14.1231 0.998981 14.3531 1.24278 14.3531H2.82858V12.1311C2.82858 11.4837 3.18898 10.8967 3.74838 10.635L5.80078 9.67915C5.72402 9.55699 5.65385 9.43081 5.59058 9.30115ZM12.0274 6.96015H18.8458H18.847C19.0416 6.96015 19.1992 6.80235 19.1992 6.60795V5.32175C19.1992 5.12715 19.0414 4.96955 18.847 4.96955L18.8458 4.96975V4.96875H11.2266C11.5621 5.41022 11.8023 5.91659 11.9318 6.45575C11.9748 6.63355 12.006 6.79975 12.0274 6.96015ZM19.1992 13.2871C19.1992 13.0925 19.0414 12.935 18.847 12.935L18.8458 12.9352V12.9341H14.4014V14.752C14.4014 14.8106 14.3982 14.8684 14.3924 14.9253H18.8458H18.847C19.0416 14.9253 19.1992 14.7675 19.1992 14.5731V13.2871ZM18.847 8.95235L18.8458 8.95255V8.95155H11.7888C11.757 9.03535 11.7234 9.11875 11.686 9.20135C11.6143 9.35957 11.5325 9.51302 11.4412 9.66075L13.4988 10.6424C13.6532 10.7185 13.7937 10.8201 13.9144 10.943H18.8458H18.847C19.0416 10.943 19.1992 10.7852 19.1992 10.5907V9.30455C19.1992 9.10995 19.0414 8.95235 18.847 8.95235Z" fill="black"/>
<path d="M13.0645 11.5399L10.7543 10.4379L9.77733 9.97193C10.2041 9.70313 10.5505 9.28833 10.7773 8.78853C10.9664 8.37197 11.0643 7.9198 11.0643 7.46233C11.0643 7.19273 11.0217 6.93693 10.9619 6.68973C10.6713 5.49313 9.73673 4.61133 8.61473 4.61133C7.51393 4.61133 6.59353 5.46153 6.28513 6.62433C6.21393 6.89093 6.16473 7.16833 6.16473 7.46213C6.16473 7.97253 6.28393 8.44813 6.48653 8.86213C6.72073 9.34213 7.06773 9.73793 7.49013 9.99233L6.55453 10.4279L4.16933 11.5387C3.96193 11.6357 3.82593 11.8695 3.82593 12.1305V14.7515C3.82593 15.1027 4.07073 15.3877 4.37293 15.3877H12.8563C13.1585 15.3877 13.4033 15.1029 13.4033 14.7515V12.1307C13.4037 11.8705 13.2697 11.6391 13.0645 11.5399Z" fill="black"/>
</svg>
