<svg width="30" height="40" viewBox="0 0 30 40" fill="none" xmlns="http://www.w3.org/2000/svg">
<path d="M15.0003 0.166016C16.6579 0.166016 18.2476 0.824496 19.4197 1.9966C20.5918 3.1687 21.2503 4.75841 21.2503 6.41602V18.916C21.2503 20.5736 20.5918 22.1633 19.4197 23.3354C18.2476 24.5075 16.6579 25.166 15.0003 25.166C13.3427 25.166 11.753 24.5075 10.5809 23.3354C9.40881 22.1633 8.75033 20.5736 8.75033 18.916V6.41602C8.75033 4.75841 9.40881 3.1687 10.5809 1.9966C11.753 0.824496 13.3427 0.166016 15.0003 0.166016ZM29.5837 18.916C29.5837 26.2702 24.1462 32.3327 17.0837 33.3535V39.7494H12.917V33.3535C5.85449 32.3327 0.416992 26.2702 0.416992 18.916H4.58366C4.58366 21.6787 5.68113 24.3282 7.63463 26.2817C9.58813 28.2352 12.2377 29.3327 15.0003 29.3327C17.763 29.3327 20.4125 28.2352 22.366 26.2817C24.3195 24.3282 25.417 21.6787 25.417 18.916H29.5837Z" fill="white"/>
</svg>
