<svg width="14" height="12" viewBox="0 0 14 12" fill="none" xmlns="http://www.w3.org/2000/svg">
<path d="M7.84016 0.200372C7.9445 0.125733 8.0666 0.0797717 8.19425 0.0670764C8.32191 0.0543812 8.45067 0.0753967 8.56766 0.128024C8.68466 0.180652 8.7858 0.263051 8.86099 0.366993C8.93618 0.470935 8.98279 0.592784 8.99616 0.720372L9.00016 0.796372V11.2044C9.00021 11.3327 8.96659 11.4587 8.90268 11.57C8.83876 11.6812 8.74678 11.7737 8.63593 11.8383C8.52507 11.9029 8.39921 11.9372 8.27092 11.9379C8.14263 11.9387 8.0164 11.9057 7.90483 11.8424L7.84083 11.801L3.4535 8.66704H1.66683C1.33045 8.66715 1.00645 8.5401 0.759798 8.31137C0.513143 8.08265 0.362058 7.76914 0.33683 7.43371L0.333496 7.33371V4.66704C0.33339 4.33066 0.460434 4.00666 0.689161 3.76001C0.917888 3.51335 1.23139 3.36227 1.56683 3.33704L1.66683 3.33371H3.4535L7.84016 0.200372ZM12.1115 2.52237C12.6013 2.95968 12.9931 3.49562 13.2611 4.09503C13.5292 4.69444 13.6674 5.34376 13.6668 6.00037C13.6674 6.65699 13.5292 7.30631 13.2611 7.90572C12.9931 8.50512 12.6013 9.04107 12.1115 9.47837C12.0464 9.53772 11.9702 9.58359 11.8874 9.61333C11.8045 9.64307 11.7165 9.65609 11.6285 9.65164C11.5406 9.64719 11.4544 9.62536 11.3749 9.58741C11.2954 9.54945 11.2243 9.49613 11.1655 9.43052C11.1068 9.3649 11.0616 9.2883 11.0327 9.20513C11.0037 9.12197 10.9915 9.03388 10.9967 8.94597C11.002 8.85806 11.0246 8.77207 11.0633 8.69295C11.102 8.61384 11.156 8.54317 11.2222 8.48504C11.5723 8.17279 11.8523 7.78995 12.0439 7.3617C12.2354 6.93345 12.3341 6.4695 12.3335 6.00037C12.3335 5.01371 11.9055 4.12704 11.2222 3.51571C11.156 3.45757 11.102 3.38691 11.0633 3.30779C11.0246 3.22868 11.002 3.14268 10.9967 3.05477C10.9915 2.96686 11.0037 2.87878 11.0327 2.79561C11.0616 2.71245 11.1068 2.63584 11.1655 2.57023C11.2243 2.50462 11.2954 2.45129 11.3749 2.41334C11.4544 2.37538 11.5406 2.35355 11.6285 2.3491C11.7165 2.34465 11.8045 2.35767 11.8874 2.38741C11.9702 2.41715 12.0464 2.46302 12.1115 2.52237ZM10.7782 4.01304C11.0579 4.26287 11.2817 4.569 11.4349 4.91138C11.588 5.25376 11.6671 5.62464 11.6668 5.99971C11.6673 6.37501 11.5883 6.74616 11.4352 7.08878C11.282 7.43141 11.0581 7.73776 10.7782 7.98771C10.6517 8.09999 10.4874 8.16004 10.3183 8.15569C10.1493 8.15135 9.98824 8.08294 9.86775 7.96431C9.74726 7.84568 9.67635 7.6857 9.66937 7.51676C9.66239 7.34782 9.71987 7.18253 9.83016 7.05437L9.88883 6.99437C10.1622 6.74904 10.3335 6.39504 10.3335 6.00037C10.3343 5.65898 10.2034 5.33042 9.96816 5.08304L9.88883 5.00637C9.82267 4.94824 9.76869 4.87758 9.73 4.79846C9.69131 4.71935 9.66868 4.63335 9.66342 4.54544C9.65815 4.45753 9.67036 4.36945 9.69933 4.28628C9.7283 4.20311 9.77346 4.12651 9.8322 4.0609C9.89095 3.99528 9.96211 3.94196 10.0416 3.904C10.121 3.86605 10.2073 3.84422 10.2952 3.83977C10.3832 3.83532 10.4711 3.84834 10.554 3.87808C10.6369 3.90782 10.7131 3.95369 10.7782 4.01304Z" fill="black"/>
</svg>
